<svg width="42" height="42" viewBox="0 0 42 42" fill="none" xmlns="http://www.w3.org/2000/svg">
<path d="M16.9243 7.23826C17.0207 6.22386 17.4919 5.28184 18.2457 4.59625C18.9996 3.91067 19.9819 3.53076 21.0009 3.53076C22.0199 3.53076 23.0023 3.91067 23.7561 4.59625C24.51 5.28184 24.9811 6.22386 25.0775 7.23826C25.1355 7.89356 25.3505 8.52525 25.7043 9.07986C26.0581 9.63447 26.5403 10.0957 27.1101 10.4244C27.6799 10.7532 28.3205 10.9399 28.9778 10.9686C29.635 10.9973 30.2895 10.8673 30.8858 10.5895C31.8117 10.1691 32.861 10.1083 33.8293 10.4189C34.7976 10.7294 35.6157 11.3892 36.1245 12.2697C36.6332 13.1502 36.796 14.1885 36.5814 15.1825C36.3668 16.1765 35.79 17.0551 34.9633 17.6473C34.425 18.025 33.9855 18.5268 33.6821 19.1103C33.3788 19.6938 33.2204 20.3418 33.2204 20.9994C33.2204 21.657 33.3788 22.305 33.6821 22.8885C33.9855 23.4719 34.425 23.9738 34.9633 24.3515C35.79 24.9437 36.3668 25.8223 36.5814 26.8163C36.796 27.8103 36.6332 28.8486 36.1245 29.7291C35.6157 30.6096 34.7976 31.2693 33.8293 31.5799C32.861 31.8905 31.8117 31.8297 30.8858 31.4093C30.2895 31.1315 29.635 31.0014 28.9778 31.0302C28.3205 31.0589 27.6799 31.2456 27.1101 31.5743C26.5403 31.9031 26.0581 32.3643 25.7043 32.9189C25.3505 33.4735 25.1355 34.1052 25.0775 34.7605C24.9811 35.7749 24.51 36.7169 23.7561 37.4025C23.0023 38.0881 22.0199 38.468 21.0009 38.468C19.9819 38.468 18.9996 38.0881 18.2457 37.4025C17.4919 36.7169 17.0207 35.7749 16.9243 34.7605C16.8664 34.105 16.6515 33.4731 16.2976 32.9182C15.9437 32.3634 15.4612 31.9021 14.8912 31.5733C14.3212 31.2445 13.6803 31.0579 13.0228 31.0293C12.3654 31.0008 11.7107 31.1311 11.1143 31.4093C10.1884 31.8297 9.13912 31.8905 8.17079 31.5799C7.20247 31.2693 6.38435 30.6096 5.87564 29.7291C5.36693 28.8486 5.20405 27.8103 5.41867 26.8163C5.6333 25.8223 6.2101 24.9437 7.03679 24.3515C7.57513 23.9738 8.01457 23.4719 8.31795 22.8885C8.62133 22.305 8.77971 21.657 8.77971 20.9994C8.77971 20.3418 8.62133 19.6938 8.31795 19.1103C8.01457 18.5268 7.57513 18.025 7.03679 17.6473C6.21126 17.0548 5.63548 16.1766 5.42137 15.1832C5.20726 14.1899 5.37011 13.1525 5.87827 12.2725C6.38642 11.3926 7.20359 10.733 8.17095 10.4219C9.13831 10.1109 10.1868 10.1706 11.1125 10.5895C11.7089 10.8673 12.3633 10.9973 13.0206 10.9686C13.6778 10.9399 14.3184 10.7532 14.8882 10.4244C15.458 10.0957 15.9403 9.63447 16.2941 9.07986C16.6479 8.52525 16.8628 7.89356 16.9208 7.23826" stroke="white" stroke-width="3.64" stroke-linecap="round" stroke-linejoin="round"/>
<path d="M21 26.25C23.8995 26.25 26.25 23.8995 26.25 21C26.25 18.1005 23.8995 15.75 21 15.75C18.1005 15.75 15.75 18.1005 15.75 21C15.75 23.8995 18.1005 26.25 21 26.25Z" stroke="white" stroke-width="3.64" stroke-linecap="round" stroke-linejoin="round"/>
</svg>
